# xmcd
# 
# Track frame offsets:
#     150
#     2497
#     10807
#     18920
#     29357
#     41107
#     50422
#     60527
#     69582
#     78920
# 
# Disc length: 1181
# 
# Revision: 1
# Processed by: cddbd v1.5.2PL0 Copyright (c) Steve Scherf et al.
# Submitted via: fre:ac v1.0.31
# 
DISCID=70049b0a
DTITLE=HASKE - Play the Blues (Eb)
DYEAR=0
DGENRE=Jazz
TTITLE0=Tuning Note
TTITLE1=Basic Blues
TTITLE2=Blues 'n Boogie
TTITLE3=Heavy Stuff
TTITLE4=I'm Slow in Love
TTITLE5=Rockin' Steventies
TTITLE6=Blue Note Blues
TTITLE7=James Brown Groove
TTITLE8=Blues Brother-in-Law
TTITLE9=Grandmaster J
EXTD=
EXTT0=
EXTT1=
EXTT2=
EXTT3=
EXTT4=
EXTT5=
EXTT6=
EXTT7=
EXTT8=
EXTT9=
PLAYORDER=
